# xmcd
#
# Track frame offsets:
# 182
# 9615
# 19652
# 31877
# 43620
# 55775
# 67915
# 81700
# 93750
# 104327
# 115075
# 129820
# 141470
# 156150
# 165440
# 182700
# 193060
# 205530
# 219280
# 234467
# 241320
# 250010
# 261352
#
# Disc length: 3648 seconds
#
# Revision: 0
# Processed by: cddbd v1.4PL0 Copyright (c) Steve Scherf et al.
# Submitted via: Audion 3.0.2 (http://www.panic.com/audion/)
#
DISCID=2f0e3e17
DTITLE=Konrad Plaikner - Bal champêtre tyrolien
DYEAR=1900
DGENRE=
TTITLE0=Musikball
TTITLE1=Festag in Tyrol
TTITLE2=Klarinetten Ploka
TTITLE3=Herbstlaub
TTITLE4=Im Jaufental
TTITLE5=Heute Lustig
TTITLE6=Zither Saiten
TTITLE7=Wiesen polka
TTITLE8=Auslese 73
TTITLE9=Zum Wohl
TTITLE10=LÄnder
TTITLE11=Auf tansbon'n
TTITLE12=Bergmelodie
TTITLE13=posaudnenliebe
TTITLE14=Hochzeit
TTITLE15=Die lustige Harmonica
TTITLE16=Kaiserländer
TTITLE17=Abscheid
TTITLE18=Die Blumen königin
TTITLE19=Meran 2000
TTITLE20=Petersberger Jodler
TTITLE21=Haflinger
TTITLE22=Liesellotte
EXTD=
EXTT0=
EXTT1=
EXTT2=
EXTT3=
EXTT4=
EXTT5=
EXTT6=
EXTT7=
EXTT8=
EXTT9=
EXTT10=
EXTT11=
EXTT12=
EXTT13=
EXTT14=
EXTT15=
EXTT16=
EXTT17=
EXTT18=
EXTT19=
EXTT20=
EXTT21=
EXTT22=
PLAYORDER=
